<svg xmlns="http://www.w3.org/2000/svg" viewBox="0 0 512 512" fill="none">
  <defs>
    <linearGradient id="bg" x1="72" y1="56" x2="438" y2="464" gradientUnits="userSpaceOnUse">
      <stop stop-color="#0f766e" />
      <stop offset="0.48" stop-color="#1d4ed8" />
      <stop offset="1" stop-color="#020617" />
    </linearGradient>
    <linearGradient id="card" x1="116" y1="120" x2="380" y2="384" gradientUnits="userSpaceOnUse">
      <stop stop-color="#ecfeff" stop-opacity="0.98" />
      <stop offset="1" stop-color="#bfdbfe" stop-opacity="0.9" />
    </linearGradient>
  </defs>
  <rect width="512" height="512" rx="120" fill="url(#bg)" />
  <rect x="88" y="88" width="336" height="336" rx="92" fill="#020617" fill-opacity="0.18" />
  <path
    d="M160 173c0-15.464 12.536-28 28-28h136c15.464 0 28 12.536 28 28v166c0 15.464-12.536 28-28 28H188c-15.464 0-28-12.536-28-28V173Z"
    fill="url(#card)"
    fill-opacity="0.92"
  />
  <path
    d="M196 212h121c7.18 0 13 5.82 13 13v5c0 7.18-5.82 13-13 13H196c-7.18 0-13-5.82-13-13v-5c0-7.18 5.82-13 13-13Z"
    fill="#0f172a"
    fill-opacity="0.9"
  />
  <path
    d="M196 268h88c7.18 0 13 5.82 13 13v5c0 7.18-5.82 13-13 13h-88c-7.18 0-13-5.82-13-13v-5c0-7.18 5.82-13 13-13Z"
    fill="#0f172a"
    fill-opacity="0.76"
  />
  <path
    d="M312 270c20.987 0 38 17.013 38 38s-17.013 38-38 38-38-17.013-38-38 17.013-38 38-38Z"
    fill="#0f766e"
  />
  <path d="M312 286 327 311h-30l15-25Z" fill="#ecfeff" />
  <path d="M301 319h22v10h-22z" fill="#ecfeff" />
  <path
    d="M106 163c16.264-32.373 49.289-55 87.594-55h20.406"
    stroke="#67e8f9"
    stroke-width="18"
    stroke-linecap="round"
    stroke-opacity="0.72"
  />
  <path
    d="M398 349c-16.264 32.373-49.289 55-87.594 55H290"
    stroke="#5eead4"
    stroke-width="18"
    stroke-linecap="round"
    stroke-opacity="0.72"
  />
</svg>
